# xmcd
#
# Track frame offsets: 
#        150
#        27133
#        63050
#        93298
#        118656
#        162367
#        212080
#        258888
#
# Disc length: 4050 seconds
#
# Revision: 1
# Processed by: cddbd v1.5.2PL0 Copyright (c) Steve Scherf et al.
# Submitted via: ExactAudioCopyFreeDBPlugin 1.0
#
DISCID=5f0fd008
DTITLE=Various Artist - Philadelphia International Classics:  The Tom
DTITLE=Moulton Remixes
DYEAR=2012
DGENRE=Soul
TTITLE0=The Trammps - Trusting Heart (Tom Moulton remix)
TTITLE1=Harold Melvyn and The Blue Notes - Bad Luck (Tom Moulton remix)
TTITLE2=The Trammps - Trammps' Disco Theme - Zing Went the Strings of 
TTITLE2=My Heart (Tom Moulton remix)
TTITLE3=People's Choice - Do it Any Way You Wanna (Tom Moulton remix)
TTITLE4=The O'Jays - I Love Music (Tom Moulton remix)
TTITLE5=Harold Melvyn and The Blue Notes - Don't Leave Me This Way (Tom 
TTITLE5=Moulton remix)
TTITLE6=Archie Bell and The Drells - Let's Groove (Tom Moulton remix)
TTITLE7=Lou Rawls - You'll Never Find Another Love Like Mine (Tom Moul
TTITLE7=ton remix)
EXTD=YEAR: 2012
EXTT0=
EXTT1=
EXTT2=
EXTT3=
EXTT4=
EXTT5=
EXTT6=
EXTT7=
PLAYORDER=
